#N canvas 878 0 1017 688 10;
#X declare -path ./abs;
#X declare -path ./externals;
#X obj 641 94 declare -path ./abs;
#X obj 214 269 env~;
#X floatatom 214 290 5 0 0 0 - - - 0;
#X obj 174 269 env~;
#X floatatom 174 290 5 0 0 0 - - - 0;
#N canvas 408 40 547 588 reverb 0;
#X obj 192 248 r reverbgain;
#X obj 192 308 pack 0 50;
#X obj 193 169 pack 0 50;
#X obj 193 145 r rev-mute;
#X obj 143 -118 inlet~;
#X obj 170 -96 inlet~;
#X obj 143 426 outlet~;
#X obj 257 428 outlet~;
#X obj 192 268 + 100;
#X obj 192 288 dbtorms;
#X obj 193 191 line~;
#X obj 192 327 line~;
#X obj 160 382 *~;
#X obj 272 382 *~;
#X obj 271 220 *~;
#X obj 161 220 *~;
#X obj 143 403 +~;
#X obj 257 406 +~;
#X obj 270 -63 r rev-lev;
#X obj 289 -41 r rev-size;
#X obj 178 87 rev3~ 98 89 4000 80;
#X obj 303 87 rev3~ 98 89 4000 80;
#X connect 0 0 8 0;
#X connect 1 0 11 0;
#X connect 2 0 10 0;
#X connect 3 0 2 0;
#X connect 4 0 16 0;
#X connect 4 0 20 0;
#X connect 5 0 17 0;
#X connect 5 0 21 0;
#X connect 8 0 9 0;
#X connect 9 0 1 0;
#X connect 10 0 14 1;
#X connect 10 0 15 1;
#X connect 11 0 12 1;
#X connect 11 0 13 1;
#X connect 12 0 16 1;
#X connect 13 0 17 1;
#X connect 14 0 13 0;
#X connect 15 0 12 0;
#X connect 16 0 6 0;
#X connect 17 0 7 0;
#X connect 18 0 20 2;
#X connect 18 0 21 2;
#X connect 19 0 20 3;
#X connect 19 0 21 3;
#X connect 20 0 15 0;
#X connect 21 0 14 0;
#X restore 73 276 pd reverb;
#X f 10;
#X obj 640 116 declare -path ./externals;
#N canvas 1010 59 1024 480 receive_from_leap 0;
#X text 569 -21 tilt/point;
#X floatatom 654 1 5 0 0 0 - - - 0;
#X floatatom 785 -1 5 0 0 0 - - - 0;
#X text 694 30 50-120;
#X obj 654 21 - 50;
#X obj 654 41 / 80;
#X text 430 -22 position;
#N canvas 542 47 394 374 tranlate-palm-pos 0;
#X obj 117 54 unpack f f f;
#X floatatom 117 126 5 0 0 0 - - - 0;
#X floatatom 151 103 5 0 0 0 - - - 0;
#X floatatom 186 79 5 0 0 0 - - - 0;
#X text 152 125 left right -300 300;
#X text 191 102 ~0 - 500;
#X text 225 78 near 200 - far -300;
#X text 204 31 position;
#X obj 117 26 inlet;
#X obj 90 293 outlet;
#X obj 176 294 outlet;
#X obj 259 294 outlet;
#X obj 259 199 + 300;
#X obj 259 242 + 1;
#X obj 176 195 - 150;
#X floatatom 191 241 5 0 0 0 - - - 0;
#X obj 176 173 clip 150 600;
#X obj 176 216 / 450;
#X obj 259 173 clip -300 300;
#X obj 259 220 / -600;
#X floatatom 269 268 5 0 0 0 - - - 0;
#X floatatom 28 261 5 0 0 0 - - - 0;
#X obj 92 173 clip -300 300;
#X obj 90 199 + 300;
#X obj 90 222 / 600;
#X connect 0 0 1 0;
#X connect 0 1 2 0;
#X connect 0 2 3 0;
#X connect 1 0 22 0;
#X connect 2 0 16 0;
#X connect 3 0 18 0;
#X connect 8 0 0 0;
#X connect 12 0 19 0;
#X connect 13 0 20 0;
#X connect 13 0 11 0;
#X connect 14 0 17 0;
#X connect 16 0 14 0;
#X connect 17 0 15 0;
#X connect 17 0 10 0;
#X connect 18 0 12 0;
#X connect 19 0 13 0;
#X connect 22 0 23 0;
#X connect 23 0 24 0;
#X connect 24 0 21 0;
#X connect 24 0 9 0;
#X restore 351 9 pd tranlate-palm-pos;
#N canvas 539 70 341 316 translate-palm-dir 0;
#X obj 43 62 unpack f f f;
#X floatatom 43 132 5 0 0 0 - - - 0;
#X floatatom 77 111 5 0 0 0 - - - 0;
#X floatatom 112 88 5 0 0 0 - - - 0;
#X text 117 110 up down tilt;
#X text 78 131 left right point;
#X obj 43 157 + 1;
#X obj 43 180 / 2;
#X obj 110 160 + 1;
#X obj 110 183 / 2;
#X floatatom 63 215 5 0 0 0 - - - 0;
#X obj 47 35 inlet;
#X obj 43 250 outlet;
#X obj 110 251 outlet;
#X floatatom 125 216 5 0 0 0 - - - 0;
#X connect 0 0 1 0;
#X connect 0 1 2 0;
#X connect 0 2 3 0;
#X connect 1 0 6 0;
#X connect 2 0 8 0;
#X connect 6 0 7 0;
#X connect 7 0 10 0;
#X connect 7 0 12 0;
#X connect 8 0 9 0;
#X connect 9 0 13 0;
#X connect 9 0 14 0;
#X connect 11 0 0 0;
#X restore 489 9 pd translate-palm-dir;
#X floatatom 118 151 5 0 0 0 - - - 0;
#X floatatom 118 169 5 0 0 0 - - - 0;
#X floatatom 118 187 5 0 0 0 - - - 0;
#X floatatom 230 170 5 0 0 0 - - - 0;
#X text 140 116 all values are from 0-1;
#X obj 351 -22 r 0-palm-pos;
#X obj 489 -21 r 0-palm-dir;
#X obj 654 -21 r 0-sphere_radius;
#X obj 785 -25 r 0-sphere_center;
#X text 117 132 0-pos;
#X text 164 133 0-tilt;
#X text 217 151 0-finger-spread;
#X text 105 150 X;
#X text 105 166 Y;
#X text 106 181 Z;
#X floatatom 167 152 5 0 0 0 - - - 0;
#X floatatom 167 170 5 0 0 0 - - - 0;
#X text 570 114 tilt/point;
#X floatatom 655 136 5 0 0 0 - - - 0;
#X floatatom 784 138 5 0 0 0 - - - 0;
#X text 695 165 50-120;
#X obj 655 156 - 50;
#X obj 655 176 / 80;
#X text 431 113 position;
#N canvas 542 47 394 374 tranlate-palm-pos 0;
#X obj 117 54 unpack f f f;
#X floatatom 117 126 5 0 0 0 - - - 0;
#X floatatom 151 103 5 0 0 0 - - - 0;
#X floatatom 186 79 5 0 0 0 - - - 0;
#X text 152 125 left right -300 300;
#X text 191 102 ~0 - 500;
#X text 225 78 near 200 - far -300;
#X text 204 31 position;
#X obj 117 26 inlet;
#X obj 90 293 outlet;
#X obj 176 294 outlet;
#X obj 259 294 outlet;
#X obj 259 199 + 300;
#X obj 259 242 + 1;
#X obj 176 195 - 150;
#X floatatom 191 241 5 0 0 0 - - - 0;
#X obj 176 173 clip 150 600;
#X obj 176 216 / 450;
#X obj 259 173 clip -300 300;
#X obj 259 220 / -600;
#X floatatom 269 268 5 0 0 0 - - - 0;
#X floatatom 28 261 5 0 0 0 - - - 0;
#X obj 90 199 + 300;
#X obj 92 173 clip -300 300;
#X obj 90 222 / 600;
#X connect 0 0 1 0;
#X connect 0 1 2 0;
#X connect 0 2 3 0;
#X connect 1 0 23 0;
#X connect 2 0 16 0;
#X connect 3 0 18 0;
#X connect 8 0 0 0;
#X connect 12 0 19 0;
#X connect 13 0 20 0;
#X connect 13 0 11 0;
#X connect 14 0 17 0;
#X connect 16 0 14 0;
#X connect 17 0 15 0;
#X connect 17 0 10 0;
#X connect 18 0 12 0;
#X connect 19 0 13 0;
#X connect 22 0 24 0;
#X connect 23 0 22 0;
#X connect 24 0 21 0;
#X connect 24 0 9 0;
#X restore 352 144 pd tranlate-palm-pos;
#N canvas 539 70 341 316 translate-palm-dir 0;
#X obj 43 62 unpack f f f;
#X floatatom 43 132 5 0 0 0 - - - 0;
#X floatatom 77 111 5 0 0 0 - - - 0;
#X floatatom 112 88 5 0 0 0 - - - 0;
#X text 117 110 up down tilt;
#X text 78 131 left right point;
#X obj 43 157 + 1;
#X obj 43 180 / 2;
#X obj 110 160 + 1;
#X obj 110 183 / 2;
#X floatatom 63 215 5 0 0 0 - - - 0;
#X obj 47 35 inlet;
#X obj 43 250 outlet;
#X obj 110 251 outlet;
#X floatatom 125 216 5 0 0 0 - - - 0;
#X connect 0 0 1 0;
#X connect 0 1 2 0;
#X connect 0 2 3 0;
#X connect 1 0 6 0;
#X connect 2 0 8 0;
#X connect 6 0 7 0;
#X connect 7 0 10 0;
#X connect 7 0 12 0;
#X connect 8 0 9 0;
#X connect 9 0 13 0;
#X connect 9 0 14 0;
#X connect 11 0 0 0;
#X restore 490 144 pd translate-palm-dir;
#X floatatom 117 230 5 0 0 0 - - - 0;
#X floatatom 117 248 5 0 0 0 - - - 0;
#X floatatom 117 266 5 0 0 0 - - - 0;
#X floatatom 229 249 5 0 0 0 - - - 0;
#X text 358 187 all values are from 0-1;
#X text 104 229 X;
#X text 104 245 Y;
#X text 105 260 Z;
#X floatatom 166 231 5 0 0 0 - - - 0;
#X floatatom 166 249 5 0 0 0 - - - 0;
#X obj 352 113 r 1-palm-pos;
#X obj 490 114 r 1-palm-dir;
#X obj 655 114 r 1-sphere_radius;
#X obj 784 114 r 1-sphere_center;
#X text 116 211 1-pos;
#X text 163 212 1-tilt;
#X text 216 230 1-finger-spread;
#X obj 49 151 s pitch;
#X obj 52 250 s vol;
#X connect 1 0 4 0;
#X connect 4 0 5 0;
#X connect 5 0 12 0;
#X connect 7 0 9 0;
#X connect 7 1 10 0;
#X connect 7 2 11 0;
#X connect 8 0 24 0;
#X connect 8 1 25 0;
#X connect 9 0 52 0;
#X connect 14 0 7 0;
#X connect 15 0 8 0;
#X connect 16 0 1 0;
#X connect 17 0 2 0;
#X connect 27 0 30 0;
#X connect 30 0 31 0;
#X connect 31 0 38 0;
#X connect 33 0 35 0;
#X connect 33 1 36 0;
#X connect 33 2 37 0;
#X connect 34 0 43 0;
#X connect 34 1 44 0;
#X connect 36 0 53 0;
#X connect 45 0 33 0;
#X connect 46 0 34 0;
#X connect 47 0 27 0;
#X connect 48 0 28 0;
#X coords 0 -1 1 1 220 190 1 100 100;
#X restore 410 30 pd receive_from_leap;
#X obj 640 30 Leap-Route;
#N canvas 0 23 450 300 reverb-control 0;
#X msg 20 54 \; rev-lev 96 \; rev-size 88 \; rev-mute 1 \; reverbgain 10 \;;
#X msg 155 55 \; rev-lev 0 \; rev-size 88 \; rev-mute 1 \; reverbgain 10 \;;
#X obj 12 21 loadbang;
#X connect 2 0 0 0;
#X restore 73 207 pd reverb-control;
#X obj 73 328 output~;
#X obj 73 235 catch~ dacL;
#X obj 148 235 catch~ dacR;
#X obj 73 166 throw~ dacL;
#X obj 172 166 throw~ dacR;
#N canvas 1475 320 450 300 theremin 0;
#X obj 29 38 r pitch;
#X floatatom 29 59 5 0 0 0 - - - 0;
#X obj 30 166 osc~;
#X obj 30 187 *~;
#X obj 30 208 s~ theremin;
#X obj 30 114 mtof;
#X obj 144 38 r vol;
#X floatatom 144 59 5 0 0 0 - - - 0;
#X obj 158 201 dac~;
#X obj 29 79 * 127;
#X connect 0 0 1 0;
#X connect 1 0 9 0;
#X connect 2 0 3 0;
#X connect 3 0 4 0;
#X connect 3 0 8 0;
#X connect 5 0 2 0;
#X connect 6 0 7 0;
#X connect 7 0 3 1;
#X connect 9 0 5 0;
#X restore 71 53 pd theremin;
#N canvas 1118 502 450 300 vibrato 1;
#X obj 13 10 inlet~;
#X obj 13 32 delwrite~ vibrato 50;
#X obj 13 149 osc~ 2;
#X obj 13 190 *~ 1;
#X obj 13 212 +~ 2;
#X obj 13 241 vd~ vibrato;
#X obj 13 280 outlet~;
#X obj 162 196 * 2;
#X obj 201 224 +;
#X floatatom 201 245 5 0 0 0 - - - 0;
#X floatatom 67 120 5 0 0 0 - - - 0;
#X obj 16 86 hsl 136 16 0 127 0 0 empty empty empty -2 -8 0 10 #fcfcfc #000000 #000000 0 1;
#X text 72 158 LFO;
#X text 10 67 frequency;
#X obj 165 174 hsl 136 16 0 127 0 0 empty empty empty -2 -8 0 10 #fcfcfc #000000 #000000 0 1;
#X obj 67 280 outlet~;
#X text 159 157 depth;
#X obj 291 17 loadbang;
#X msg 188 51 50;
#X msg 260 66 2;
#X connect 0 0 1 0;
#X connect 2 0 3 0;
#X connect 3 0 4 0;
#X connect 4 0 5 0;
#X connect 5 0 6 0;
#X connect 5 0 15 0;
#X connect 7 0 8 0;
#X connect 7 0 4 1;
#X connect 8 0 9 0;
#X connect 11 0 2 0;
#X connect 11 0 10 0;
#X connect 14 0 7 0;
#X connect 14 0 8 1;
#X connect 14 0 3 1;
#X connect 17 0 18 0;
#X connect 17 0 19 0;
#X connect 18 0 11 0;
#X connect 19 0 14 0;
#X restore 73 104 pd vibrato;
#X connect 1 0 2 0;
#X connect 3 0 4 0;
#X connect 5 0 10 0;
#X connect 5 1 10 1;
#X connect 11 0 3 0;
#X connect 11 0 5 0;
#X connect 12 0 1 0;
#X connect 12 0 5 1;
#X connect 16 0 13 0;
#X connect 16 1 14 0;
