#N canvas 1147 259 450 300 12;
#N canvas 463 141 1228 543 control 0;
#X obj 436 27 tgl 19 0 empty empty empty 0 -10 0 12 #fcfcfc #000000 #000000 0 1;
#X obj 293 46 spigot;
#X obj 293 21 r osc-messages;
#X floatatom 414 272 5 0 0 0 - - - 0;
#X obj 414 319 s notes;
#X msg 414 295 0 \$1;
#X floatatom 476 273 5 0 0 0 - - - 0;
#X obj 476 320 s notes;
#X floatatom 535 274 5 0 0 0 - - - 0;
#X obj 535 321 s notes;
#X floatatom 593 275 5 0 0 0 - - - 0;
#X obj 593 322 s notes;
#X floatatom 532 356 5 0 0 0 - - - 0;
#X obj 532 403 s notes;
#X obj 523 219 else/osc.route /push1 /push2 /push3 /push4 /push5 /push6 /push7 /push8 /push9 /push10 /push11 /push12 /push13;
#X floatatom 593 356 5 0 0 0 - - - 0;
#X obj 593 403 s notes;
#X floatatom 654 356 5 0 0 0 - - - 0;
#X obj 654 403 s notes;
#X floatatom 713 356 5 0 0 0 - - - 0;
#X obj 713 403 s notes;
#X floatatom 641 437 5 0 0 0 - - - 0;
#X obj 641 484 s notes;
#X floatatom 699 436 5 0 0 0 - - - 0;
#X obj 699 483 s notes;
#X floatatom 759 436 5 0 0 0 - - - 0;
#X obj 759 483 s notes;
#X floatatom 820 436 5 0 0 0 - - - 0;
#X obj 820 483 s notes;
#X floatatom 882 435 5 0 0 0 - - - 0;
#X obj 882 482 s notes;
#X msg 476 296 1 \$1;
#X msg 535 297 2 \$1;
#X msg 593 298 3 \$1;
#X msg 532 379 4 \$1;
#X msg 593 379 5 \$1;
#X msg 654 379 6 \$1;
#X msg 713 379 7 \$1;
#X msg 641 460 8 \$1;
#X msg 699 459 9 \$1;
#X msg 759 459 10 \$1;
#X msg 820 459 11 \$1;
#X msg 882 458 12 \$1;
#X obj 22 145 r notes;
#X obj 22 169 unpack f f;
#X obj 22 193 + 48;
#X obj 22 217 s pitch;
#X obj 912 299 s xy1;
#X obj 185 142 r xy1;
#X obj 185 166 unpack f f;
#X floatatom 252 206 5 0 0 0 - - - 0;
#X obj 252 229 * 3;
#X obj 252 253 s index;
#X floatatom 185 205 5 0 0 0 - - - 0;
#X obj 185 228 * 3000;
#X obj 185 252 s AM;
#X obj 25 22 else/osc.receive 8003;
#X obj 25 46 s osc-messages;
#X obj 89 218 s note-on;
#X obj 494 28 print;
#X obj 293 91 else/osc.route /1;
#X obj 912 273 else/osc.route /xy1;
#X obj 293 145 s toggle1;
#X obj 374 145 s toggle2;
#X obj 436 0 loadbang;
#X obj 609 155 s file1;
#X obj 293 115 else/osc.route /toggle1 /toggle2 /volume1 /volume2 /file1;
#X obj 456 145 s volume1;
#X obj 530 147 s volume2;
#X obj 22 331 tgl 19 0 empty empty empty 0 -10 0 12 #fcfcfc #000000 #000000 0 1;
#X obj 22 307 r toggle2;
#X obj 22 355 sel 1 0;
#X msg 22 379 \; pd dsp \$1;
#X msg 113 378 \; pd dsp \$0;
#X text 95 335 dsp on/off;
#X connect 0 0 1 1;
#X connect 1 0 59 0;
#X connect 1 0 60 0;
#X connect 2 0 1 0;
#X connect 3 0 5 0;
#X connect 5 0 4 0;
#X connect 6 0 31 0;
#X connect 8 0 32 0;
#X connect 10 0 33 0;
#X connect 12 0 34 0;
#X connect 14 0 3 0;
#X connect 14 1 6 0;
#X connect 14 2 8 0;
#X connect 14 3 10 0;
#X connect 14 4 12 0;
#X connect 14 5 15 0;
#X connect 14 6 17 0;
#X connect 14 7 19 0;
#X connect 14 8 21 0;
#X connect 14 9 23 0;
#X connect 14 10 25 0;
#X connect 14 11 27 0;
#X connect 14 12 29 0;
#X connect 14 13 61 0;
#X connect 15 0 35 0;
#X connect 17 0 36 0;
#X connect 19 0 37 0;
#X connect 21 0 38 0;
#X connect 23 0 39 0;
#X connect 25 0 40 0;
#X connect 27 0 41 0;
#X connect 29 0 42 0;
#X connect 31 0 7 0;
#X connect 32 0 9 0;
#X connect 33 0 11 0;
#X connect 34 0 13 0;
#X connect 35 0 16 0;
#X connect 36 0 18 0;
#X connect 37 0 20 0;
#X connect 38 0 22 0;
#X connect 39 0 24 0;
#X connect 40 0 26 0;
#X connect 41 0 28 0;
#X connect 42 0 30 0;
#X connect 43 0 44 0;
#X connect 44 0 45 0;
#X connect 44 1 58 0;
#X connect 45 0 46 0;
#X connect 48 0 49 0;
#X connect 49 0 53 0;
#X connect 49 1 50 0;
#X connect 50 0 51 0;
#X connect 51 0 52 0;
#X connect 53 0 54 0;
#X connect 54 0 55 0;
#X connect 56 0 57 0;
#X connect 60 0 66 0;
#X connect 61 0 47 0;
#X connect 64 0 0 0;
#X connect 66 0 62 0;
#X connect 66 1 63 0;
#X connect 66 2 67 0;
#X connect 66 3 68 0;
#X connect 66 4 65 0;
#X connect 66 5 14 0;
#X connect 69 0 71 0;
#X connect 70 0 69 0;
#X connect 71 0 72 0;
#X connect 71 1 73 0;
#X restore 193 40 pd control;
#N canvas 520 107 549 415 synth 0;
#X floatatom 27 78 5 0 0 1 carrier\ freq - - 0;
#X obj 27 123 +~;
#X obj 27 169 osc~;
#X floatatom 163 97 5 0 0 1 modulating\ freq - - 0;
#X obj 163 129 osc~;
#X obj 164 164 *~;
#X floatatom 211 166 5 0 0 1 amplitude\ of\ modulation - - 0;
#X obj 29 319 throw~ dac;
#X floatatom 27 1 5 0 0 0 - - - 0;
#X obj 27 24 mtof;
#X floatatom 227 2 5 0 0 1 index\ of\ modulation - - 0;
#X obj 227 25 t b f;
#X obj 227 62 *;
#X obj 28 214 *~;
#X obj 77 225 tgl 19 0 empty empty on/off 22 10 0 12 #fcfcfc #000000 #000000 0 1;
#X obj 77 273 line~;
#X msg 77 249 \$1 15;
#X obj 27 -27 r pitch;
#X obj 227 -26 r index;
#X obj 211 138 r AM;
#X obj 77 189 r note-on;
#X connect 0 0 1 0;
#X connect 1 0 2 0;
#X connect 2 0 13 0;
#X connect 3 0 4 0;
#X connect 4 0 5 0;
#X connect 5 0 1 1;
#X connect 6 0 5 1;
#X connect 8 0 9 0;
#X connect 9 0 0 0;
#X connect 9 0 12 0;
#X connect 10 0 11 0;
#X connect 11 0 12 0;
#X connect 11 1 12 1;
#X connect 12 0 3 0;
#X connect 13 0 7 0;
#X connect 14 0 16 0;
#X connect 15 0 13 1;
#X connect 16 0 15 0;
#X connect 17 0 8 0;
#X connect 18 0 10 0;
#X connect 19 0 6 0;
#X connect 20 0 14 0;
#X restore 36 42 pd synth;
#X obj 38 174 catch~ dac;
#X obj 37 211 dac~;
#N canvas 1318 302 450 502 synth-2 0;
#X obj 21 113 metro 500;
#X obj 21 137 bng 19 250 50 0 empty empty empty 0 -10 0 12 #fcfcfc #000000 #000000;
#X obj 21 22 r toggle1;
#X obj 21 184 f;
#X obj 59 184 + 1;
#X floatatom 21 211 5 0 0 0 - - - 0;
#X obj 21 238 % 4;
#X floatatom 21 261 5 0 0 0 - - - 0;
#X obj 21 284 select 0 1 2 3;
#X obj 21 308 bng 19 250 50 0 empty empty empty 0 -10 0 12 #fcfcfc #000000 #000000;
#X obj 47 308 bng 19 250 50 0 empty empty empty 0 -10 0 12 #fcfcfc #000000 #000000;
#X obj 73 308 bng 19 250 50 0 empty empty empty 0 -10 0 12 #fcfcfc #000000 #000000;
#X obj 99 308 bng 19 250 50 0 empty empty empty 0 -10 0 12 #fcfcfc #000000 #000000;
#X floatatom 21 365 5 0 127 0 - - - 0;
#X floatatom 61 365 5 0 127 0 - - - 0;
#X floatatom 102 365 5 0 127 0 - - - 0;
#X floatatom 143 365 5 0 127 0 - - - 0;
#X obj 21 395 select 0;
#X obj 21 426 mtof;
#X floatatom 21 450 5 0 0 0 - - - 0;
#X obj 177 101 osc~;
#X obj 177 224 *~;
#X obj 244 313 throw~ dac;
#X obj 195 167 hsl 162 19 0.01 1 1 0 empty empty empty -2 -10 0 12 #fcfcfc #000000 #000000 0 1;
#X obj 192 136 r volume;
#X msg 297 210 \$1 15;
#X obj 297 234 line~;
#X obj 244 283 *~;
#X obj 21 60 spigot;
#X obj 83 52 tgl 19 0 empty empty empty 0 -10 0 12 #fcfcfc #000000 #000000 0 1;
#X msg 47 332 45;
#X msg 73 332 52;
#X msg 99 332 53;
#X msg 21 332 48;
#X connect 0 0 1 0;
#X connect 1 0 3 0;
#X connect 2 0 28 0;
#X connect 2 0 29 0;
#X connect 3 0 4 0;
#X connect 3 0 5 0;
#X connect 4 0 3 1;
#X connect 5 0 6 0;
#X connect 6 0 7 0;
#X connect 7 0 8 0;
#X connect 8 0 9 0;
#X connect 8 1 10 0;
#X connect 8 2 11 0;
#X connect 8 3 12 0;
#X connect 9 0 33 0;
#X connect 10 0 30 0;
#X connect 11 0 31 0;
#X connect 12 0 32 0;
#X connect 13 0 17 0;
#X connect 14 0 17 0;
#X connect 15 0 17 0;
#X connect 16 0 17 0;
#X connect 17 1 18 0;
#X connect 18 0 19 0;
#X connect 19 0 20 0;
#X connect 20 0 21 0;
#X connect 21 0 27 0;
#X connect 21 0 27 1;
#X connect 23 0 21 1;
#X connect 24 0 23 0;
#X connect 25 0 26 0;
#X connect 27 0 22 0;
#X connect 29 0 28 1;
#X connect 29 0 0 0;
#X connect 29 0 20 0;
#X connect 30 0 14 0;
#X connect 31 0 15 0;
#X connect 32 0 16 0;
#X connect 33 0 13 0;
#X restore 36 75 pd synth-2;
#N canvas 1016 613 450 300 .wav 0;
#X obj 34 23 r file1;
#X msg 72 109 1;
#X msg 87 136 0;
#X obj 118 236 env~ 16384;
#X floatatom 118 263 6 0 0 0 - - - 0;
#X msg 101 165 print;
#X obj 198 236 env~ 16384;
#X obj 34 198 readsf~ 4 1e+06, f 60;
#X obj 278 236 env~ 16384;
#X obj 359 236 env~ 16384;
#X msg 34 54 open ../sound/bell.aiff 0 200 4 2 b;
#X obj 34 239 output~;
#X msg 48 82 open ../sound/bell.aiff;
#X floatatom 198 263 6 0 0 0 - - - 0;
#X floatatom 278 263 6 0 0 0 - - - 0;
#X floatatom 359 263 6 0 0 0 - - - 0;
#X connect 0 0 10 0;
#X connect 1 0 7 0;
#X connect 2 0 7 0;
#X connect 3 0 4 0;
#X connect 5 0 7 0;
#X connect 6 0 13 0;
#X connect 7 0 3 0;
#X connect 7 0 11 0;
#X connect 7 1 6 0;
#X connect 7 1 11 1;
#X connect 7 2 8 0;
#X connect 7 3 9 0;
#X connect 8 0 14 0;
#X connect 9 0 15 0;
#X connect 10 0 7 0;
#X connect 12 0 7 0;
#X restore 38 117 pd .wav;
#X text 99 116 in progress;
#X text 98 41 FM synth;
#X text 114 75 sequenced synth;
#X connect 2 0 3 0;
#X connect 2 0 3 1;
