#N canvas 716 300 1057 631 12;
#N canvas 282 280 1407 543 control 0;
#X obj 467 69 tgl 19 0 empty empty empty 0 -10 0 12 #fcfcfc #000000 #000000 0 1;
#X obj 324 67 spigot;
#X obj 324 22 r osc-messages;
#X obj 22 134 r notes;
#X obj 22 169 unpack f f;
#X obj 22 193 + 48;
#X obj 22 217 s pitch;
#X obj 24 266 r xy1;
#X obj 24 300 unpack f f;
#X floatatom 91 325 5 0 0 0 - - - 0;
#X obj 91 347 * 3;
#X obj 91 371 s index;
#X floatatom 24 324 5 0 0 0 - - - 0;
#X obj 24 347 * 3000;
#X obj 24 371 s AM;
#X obj 25 22 else/osc.receive 8003;
#X obj 25 46 s osc-messages;
#X obj 89 218 s note-on;
#X obj 501 70 print;
#X obj 324 112 else/osc.route /1;
#X obj 467 42 loadbang;
#X obj 537 166 s mute1;
#N canvas 38 38 871 621 keys 0;
#X obj 196 37 inlet;
#X floatatom 87 220 5 0 0 0 - - - 0;
#X obj 87 267 s notes;
#X msg 87 243 0 \$1;
#X floatatom 149 221 5 0 0 0 - - - 0;
#X obj 149 268 s notes;
#X floatatom 208 222 5 0 0 0 - - - 0;
#X obj 208 269 s notes;
#X floatatom 266 223 5 0 0 0 - - - 0;
#X obj 266 270 s notes;
#X floatatom 204 328 5 0 0 0 - - - 0;
#X obj 204 375 s notes;
#X obj 196 167 else/osc.route /push1 /push2 /push3 /push4 /push5 /push6 /push7 /push8 /push9 /push10 /push11 /push12 /push13;
#X floatatom 265 328 5 0 0 0 - - - 0;
#X obj 265 375 s notes;
#X floatatom 326 328 5 0 0 0 - - - 0;
#X obj 326 375 s notes;
#X floatatom 385 328 5 0 0 0 - - - 0;
#X obj 385 375 s notes;
#X floatatom 312 443 5 0 0 0 - - - 0;
#X obj 312 490 s notes;
#X floatatom 370 442 5 0 0 0 - - - 0;
#X obj 370 489 s notes;
#X floatatom 430 442 5 0 0 0 - - - 0;
#X obj 430 489 s notes;
#X floatatom 491 442 5 0 0 0 - - - 0;
#X obj 491 489 s notes;
#X floatatom 553 441 5 0 0 0 - - - 0;
#X obj 553 488 s notes;
#X msg 149 244 1 \$1;
#X msg 208 245 2 \$1;
#X msg 266 246 3 \$1;
#X msg 204 351 4 \$1;
#X msg 265 351 5 \$1;
#X msg 326 351 6 \$1;
#X msg 385 351 7 \$1;
#X msg 312 466 8 \$1;
#X msg 370 465 9 \$1;
#X msg 430 465 10 \$1;
#X msg 491 465 11 \$1;
#X msg 553 464 12 \$1;
#X obj 585 247 s xy1;
#X obj 585 221 else/osc.route /xy1;
#X connect 0 0 12 0;
#X connect 1 0 3 0;
#X connect 3 0 2 0;
#X connect 4 0 29 0;
#X connect 6 0 30 0;
#X connect 8 0 31 0;
#X connect 10 0 32 0;
#X connect 12 0 1 0;
#X connect 12 1 4 0;
#X connect 12 2 6 0;
#X connect 12 3 8 0;
#X connect 12 4 10 0;
#X connect 12 5 13 0;
#X connect 12 6 15 0;
#X connect 12 7 17 0;
#X connect 12 8 19 0;
#X connect 12 9 21 0;
#X connect 12 10 23 0;
#X connect 12 11 25 0;
#X connect 12 12 27 0;
#X connect 12 13 42 0;
#X connect 13 0 33 0;
#X connect 15 0 34 0;
#X connect 17 0 35 0;
#X connect 19 0 36 0;
#X connect 21 0 37 0;
#X connect 23 0 38 0;
#X connect 25 0 39 0;
#X connect 27 0 40 0;
#X connect 29 0 5 0;
#X connect 30 0 7 0;
#X connect 31 0 9 0;
#X connect 32 0 11 0;
#X connect 33 0 14 0;
#X connect 34 0 16 0;
#X connect 35 0 18 0;
#X connect 36 0 20 0;
#X connect 37 0 22 0;
#X connect 38 0 24 0;
#X connect 39 0 26 0;
#X connect 40 0 28 0;
#X connect 42 0 41 0;
#X restore 965 197 pd keys;
#X obj 466 166 s volume;
#X obj 325 247 else/osc.route /randscale /randmotive /scale1 /scale2 /motive1 /motive2 /motive3 /randchord /rand8ve, f 101;
#X obj 324 166 s metro;
#X obj 395 166 s dsp;
#X obj 609 166 s metro;
#X obj 680 166 s randmetro;
#X obj 325 280 s randscale;
#X obj 415 280 s randmotive;
#X obj 512 280 s scale1;
#X obj 581 280 s scale2;
#X obj 651 280 s motive1;
#X obj 729 280 s motive2;
#X obj 808 280 s motive3;
#X obj 885 280 s randchord;
#X obj 975 280 s rand8ve;
#X obj 324 136 else/osc.route /metro /dsp /volume /mute1 /metro /randmetro /off1 /off2 /off3, f 92;
#X obj 769 166 s off1;
#X obj 823 166 s off2;
#X obj 893 166 s off3;
#X connect 0 0 1 1;
#X connect 1 0 18 0;
#X connect 1 0 19 0;
#X connect 2 0 1 0;
#X connect 3 0 4 0;
#X connect 4 0 5 0;
#X connect 4 1 17 0;
#X connect 5 0 6 0;
#X connect 7 0 8 0;
#X connect 8 0 12 0;
#X connect 8 1 9 0;
#X connect 9 0 10 0;
#X connect 10 0 11 0;
#X connect 12 0 13 0;
#X connect 13 0 14 0;
#X connect 15 0 16 0;
#X connect 19 0 38 0;
#X connect 20 0 0 0;
#X connect 24 0 29 0;
#X connect 24 1 30 0;
#X connect 24 2 31 0;
#X connect 24 3 32 0;
#X connect 24 4 33 0;
#X connect 24 5 34 0;
#X connect 24 6 35 0;
#X connect 24 7 36 0;
#X connect 24 8 37 0;
#X connect 38 0 25 0;
#X connect 38 1 26 0;
#X connect 38 2 23 0;
#X connect 38 3 21 0;
#X connect 38 4 27 0;
#X connect 38 5 28 0;
#X connect 38 6 39 0;
#X connect 38 7 40 0;
#X connect 38 8 41 0;
#X connect 38 9 22 0;
#X connect 38 9 24 0;
#X restore 274 68 pd control;
#X f 11;
#N canvas 576 106 718 668 output 0;
#X obj 371 236 bng 19 250 50 0 \$0-mute-dummy-out \$0-bang mute -30 10 0 12 #ffc7c6 #000000 #000000;
#X obj 371 215 tgl 19 0 empty empty dsp 0 10 0 11 #ffffff #000000 #606060 0 1;
#X obj 467 91 sel 1 0;
#X msg 467 129 \; pd dsp 1;
#X msg 543 130 \; pd dsp 0;
#X obj 327 215 hsl 40 19 0.01 1 1 0 \$0-number-value \$0-lvl empty -2 -10 0 12 #dfdfdf #000000 #000000 0 1;
#X obj 42 321 line~;
#X obj 77 373 *~;
#X obj 77 405 dac~;
#X obj 138 372 *~;
#X obj 174 246 route bang level;
#X obj 228 286 clip 0 100;
#X obj 42 178 r \$0-master-lvl;
#X obj 228 320 s \$0-lvl;
#X obj 371 260 tgl 19 0 empty \$0-tgl empty 0 -10 0 12 #fcfcfc #000000 #000000 0 1;
#X floatatom 324 272 5 0 0 0 - - - 0;
#X text 464 67 dsp on/off;
#X obj 337 86 r mute1;
#X obj 45 97 s~ dac;
#X obj 95 247 r~ dac;
#X obj 253 115 r volume;
#X obj 337 57 r dsp;
#X obj 44 34 catch~ dacFM;
#X obj 136 34 catch~ dac2;
#X obj 221 34 catch~ dac1;
#X floatatom 253 143 5 0 0 0 - - - 0;
#X obj 188 392 output2~;
#X obj 702 363 clip 0 100;
#X obj 663 337 r \$0-number-value;
#X msg 736 388 set \$1;
#X obj 461 459 float;
#X obj 736 437 s \$0-master-lvl;
#X obj 165 526 s \$0-bang;
#X msg 563 493 label mute \, label_pos -30 10;
#X obj 563 519 s \$0-bang;
#X obj 588 468 loadbang;
#X msg 165 497 label unmute \, label_pos -44 10;
#X obj 371 337 sel 1 0;
#X msg 492 493 set 0;
#X obj 537 384 moses 1e-30;
#X obj 371 459 sel 1 0;
#X obj 492 519 s \$0-tgl;
#X obj 391 520 s \$0-lvl;
#X obj 736 412 s \$0-lvl;
#X obj 371 361 f;
#X msg 391 492 0;
#X msg 371 385 1;
#X connect 0 0 14 0;
#X connect 1 0 2 0;
#X connect 2 0 3 0;
#X connect 2 1 4 0;
#X connect 5 0 15 0;
#X connect 5 0 7 1;
#X connect 5 0 9 1;
#X connect 6 0 9 0;
#X connect 6 0 7 0;
#X connect 7 0 8 0;
#X connect 9 0 8 1;
#X connect 10 0 0 0;
#X connect 10 0 19 0;
#X connect 10 1 11 0;
#X connect 11 0 13 0;
#X connect 12 0 6 0;
#X connect 14 0 37 0;
#X connect 17 0 0 0;
#X connect 19 0 9 1;
#X connect 19 0 7 1;
#X connect 20 0 25 0;
#X connect 21 0 1 0;
#X connect 22 0 18 0;
#X connect 23 0 18 0;
#X connect 24 0 18 0;
#X connect 25 0 5 0;
#X connect 27 0 29 0;
#X connect 27 0 31 0;
#X connect 27 0 39 0;
#X connect 28 0 27 0;
#X connect 29 0 43 0;
#X connect 30 0 42 0;
#X connect 33 0 34 0;
#X connect 35 0 33 0;
#X connect 36 0 32 0;
#X connect 37 0 44 0;
#X connect 37 1 30 0;
#X connect 38 0 41 0;
#X connect 39 0 36 0;
#X connect 39 1 30 1;
#X connect 39 1 33 0;
#X connect 39 1 38 0;
#X connect 40 0 45 0;
#X connect 40 0 36 0;
#X connect 40 1 38 0;
#X connect 44 0 46 0;
#X connect 45 0 42 0;
#X connect 46 0 40 0;
#X connect 46 0 36 0;
#X coords 0 -1 1 1 81 55 1 310 200;
#X restore 274 5 pd output;
#N canvas 1016 613 450 300 .wav 0;
#X obj 34 23 r file1;
#X msg 72 109 1;
#X msg 87 136 0;
#X obj 118 236 env~ 16384;
#X floatatom 118 263 6 0 0 0 - - - 0;
#X msg 101 165 print;
#X obj 198 236 env~ 16384;
#X obj 34 198 readsf~ 4 1e+06, f 60;
#X obj 278 236 env~ 16384;
#X obj 359 236 env~ 16384;
#X msg 34 54 open ../sound/bell.aiff 0 200 4 2 b;
#X obj 34 239 output~;
#X msg 48 82 open ../sound/bell.aiff;
#X floatatom 198 263 6 0 0 0 - - - 0;
#X floatatom 278 263 6 0 0 0 - - - 0;
#X floatatom 359 263 6 0 0 0 - - - 0;
#X connect 0 0 10 0;
#X connect 1 0 7 0;
#X connect 2 0 7 0;
#X connect 3 0 4 0;
#X connect 5 0 7 0;
#X connect 6 0 13 0;
#X connect 7 0 3 0;
#X connect 7 0 11 0;
#X connect 7 1 6 0;
#X connect 7 1 11 1;
#X connect 7 2 8 0;
#X connect 7 3 9 0;
#X connect 8 0 14 0;
#X connect 9 0 15 0;
#X connect 10 0 7 0;
#X connect 12 0 7 0;
#X restore 274 92 pd .wav;
#N canvas 708 318 549 415 FM 0;
#X floatatom 27 78 5 0 0 1 carrier\ freq - - 0;
#X obj 27 123 +~;
#X obj 27 169 osc~;
#X floatatom 163 97 5 0 0 1 modulating\ freq - - 0;
#X obj 163 129 osc~;
#X obj 164 164 *~;
#X floatatom 211 166 5 0 0 1 amplitude\ of\ modulation - - 0;
#X floatatom 27 1 5 0 0 0 - - - 0;
#X obj 27 24 mtof;
#X floatatom 227 2 5 0 0 1 index\ of\ modulation - - 0;
#X obj 227 25 t b f;
#X obj 227 62 *;
#X obj 28 269 *~;
#X obj 109 235 tgl 19 0 empty empty on/off 22 10 0 12 #fcfcfc #000000 #000000 0 1;
#X obj 109 283 line~;
#X msg 109 259 \$1 15;
#X obj 27 -27 r pitch;
#X obj 227 -26 r index;
#X obj 211 138 r AM;
#X obj 109 199 r note-on;
#X obj 221 229 f;
#X obj 221 277 bng 19 250 50 0 empty empty empty 0 -10 0 12 #fcfcfc #000000 #000000;
#X msg 221 301 0;
#X obj 221 253 == 0;
#X text 252 273 comment;
#X obj 219 205 r off3;
#X obj 29 319 throw~ dacFM;
#X obj 27 193 *~ 0.25;
#X connect 0 0 1 0;
#X connect 1 0 2 0;
#X connect 2 0 27 0;
#X connect 3 0 4 0;
#X connect 4 0 5 0;
#X connect 5 0 1 1;
#X connect 6 0 5 1;
#X connect 7 0 8 0;
#X connect 8 0 0 0;
#X connect 8 0 11 0;
#X connect 9 0 10 0;
#X connect 10 0 11 0;
#X connect 10 1 11 1;
#X connect 11 0 3 0;
#X connect 12 0 26 0;
#X connect 13 0 15 0;
#X connect 14 0 12 1;
#X connect 15 0 14 0;
#X connect 16 0 7 0;
#X connect 17 0 9 0;
#X connect 18 0 6 0;
#X connect 19 0 13 0;
#X connect 20 0 23 0;
#X connect 21 0 22 0;
#X connect 22 0 1 0;
#X connect 23 0 21 0;
#X connect 27 0 12 0;
#X restore 274 114 pd FM synth;
#N canvas 1183 221 450 502 sequence 0;
#X obj 21 113 metro 500;
#X obj 21 137 bng 19 250 50 0 empty empty empty 0 -10 0 12 #fcfcfc #000000 #000000;
#X obj 21 184 f;
#X obj 59 184 + 1;
#X floatatom 21 211 5 0 0 0 - - - 0;
#X obj 21 238 % 4;
#X floatatom 21 261 5 0 0 0 - - - 0;
#X obj 21 284 select 0 1 2 3;
#X obj 21 308 bng 19 250 50 0 empty empty empty 0 -10 0 12 #fcfcfc #000000 #000000;
#X obj 47 308 bng 19 250 50 0 empty empty empty 0 -10 0 12 #fcfcfc #000000 #000000;
#X obj 73 308 bng 19 250 50 0 empty empty empty 0 -10 0 12 #fcfcfc #000000 #000000;
#X obj 99 308 bng 19 250 50 0 empty empty empty 0 -10 0 12 #fcfcfc #000000 #000000;
#X floatatom 21 365 5 0 127 0 - - - 0;
#X floatatom 61 365 5 0 127 0 - - - 0;
#X floatatom 102 365 5 0 127 0 - - - 0;
#X floatatom 143 365 5 0 127 0 - - - 0;
#X obj 21 395 select 0;
#X obj 21 426 mtof;
#X floatatom 21 450 5 0 0 0 - - - 0;
#X obj 20 484 osc~;
#X obj 24 566 *~;
#X obj 323 157 spigot;
#X obj 293 305 tgl 19 0 empty empty empty 0 -10 0 12 #fcfcfc #000000 #000000 0 1;
#X msg 47 332 45;
#X msg 21 332 48;
#X obj 24 596 throw~ dac2;
#X obj 285 275 r off2;
#X obj 20 508 *~ 0.25;
#X msg 73 332 48;
#X msg 99 332 45;
#X connect 0 0 1 0;
#X connect 1 0 2 0;
#X connect 2 0 3 0;
#X connect 2 0 4 0;
#X connect 3 0 2 1;
#X connect 4 0 5 0;
#X connect 5 0 6 0;
#X connect 6 0 7 0;
#X connect 7 0 8 0;
#X connect 7 1 9 0;
#X connect 7 2 10 0;
#X connect 7 3 11 0;
#X connect 8 0 24 0;
#X connect 9 0 23 0;
#X connect 10 0 28 0;
#X connect 11 0 29 0;
#X connect 12 0 16 0;
#X connect 13 0 16 0;
#X connect 14 0 16 0;
#X connect 15 0 16 0;
#X connect 16 1 17 0;
#X connect 17 0 18 0;
#X connect 18 0 19 0;
#X connect 19 0 27 0;
#X connect 20 0 25 0;
#X connect 22 0 21 1;
#X connect 22 0 19 0;
#X connect 22 0 0 0;
#X connect 23 0 13 0;
#X connect 24 0 12 0;
#X connect 26 0 22 0;
#X connect 27 0 20 0;
#X connect 27 0 20 1;
#X connect 28 0 14 0;
#X connect 29 0 15 0;
#X restore 273 137 pd sequence synth;
#N canvas 670 192 1038 944 Simple 1;
#X obj 28 34 % 4;
#X floatatom 32 122 5 0 0 0 - - - 0;
#X obj 32 145 tabread motive;
#X floatatom 32 209 5 0 0 0 - - - 0;
#X obj 32 252 tabread scale;
#X floatatom 32 276 5 0 0 0 - - - 0;
#X obj 38 460 phasor~, f 8;
#X obj 505 23 tgl 19 0 empty empty on/off -2 -10 0 12 #fcfcfc #000000 #000000 0 1;
#X obj 67 -13 f;
#X obj 122 67 bng 19 250 50 0 empty empty empty 0 -10 0 12 #fcfcfc #000000 #000000;
#X floatatom 59 72 5 0 0 0 - - - 0;
#X obj 505 57 hsl 90 25 127 1270 0 0 empty empty empty -2 -10 0 12 #fcfcfc #000000 #000000 0 1;
#X msg 205 -20 50;
#X obj 205 -54 loadbang;
#X obj 365 55 sel 0;
#X obj 312 168 random 8;
#X obj 408 268 random 2;
#X obj 408 292 sel 0 1;
#X obj 498 398 random 3;
#X obj 498 422 sel 0 1 2;
#X obj 286 -39 random 5;
#X obj 366 -8 * 250;
#X obj 286 -12 sel 0;
#X msg 286 12 100;
#X obj 552 23 tgl 19 0 empty empty random 0 -10 0 12 #c7c6ff #000000 #000000 0 1;
#N canvas 76 76 450 250 (subpatch) 0;
#X array scale 20 float 3;
#A 0 0 0 2 4 5 7 9 11 12 14 16 17 19 21 23 24 0 0 0 0;
#X coords 0 25 20 -1 200 140 1 0 0;
#X restore 478 121 graph;
#X msg 478 266 \; scale 1 0 2 4 5 7 9 11 12 14 16 17 19 21 23 24;
#X msg 478 308 \; scale 1 0 2 3 5 7 8 10 12 14 15 17 19 20 22 24;
#N canvas 190 190 450 250 (subpatch) 0;
#X array motive 12 float 3;
#A 0 0 1 2 5 6 9 0 0 0 0 0 0;
#X coords 0 20 12 -1 200 140 1 0 0;
#X restore 577 372 graph;
#X msg 576 517 \; motive const 0 \; motive 1 1 3 5 3;
#X msg 576 571 \; motive const 0 \; motive 1 8 5 3 1;
#X msg 716 517 \; motive const 0 \; motive 1 1 2 5 6 9;
#X obj 408 241 spigot;
#X obj 606 14 tgl 19 0 empty empty random 20 10 0 12 #c7c6ff #000000 #000000 0 1;
#X obj 498 367 spigot;
#X obj 606 78 tgl 19 0 empty empty random 20 10 0 12 #c7c6ff #000000 #000000 0 1;
#N canvas 38 38 450 250 (subpatch) 0;
#X coords 0 1 99 -1 100 125 1 0 0;
#X restore 500 -25 graph;
#N canvas 0 50 450 250 (subpatch) 0;
#X coords 0 1 100 -1 159 62 1 0 0;
#X restore 600 -25 graph;
#X text 528 -27 metro;
#X text 625 35 motive;
#X obj 637 -9 bng 19 250 50 0 empty empty empty 0 -10 0 12 #fcfcfc #000000 #000000;
#X obj 606 -9 bng 19 250 50 0 empty empty empty 0 -10 0 12 #fcfcfc #000000 #000000;
#X obj 669 56 bng 19 250 50 0 empty empty empty 0 -10 0 12 #fcfcfc #000000 #000000;
#X obj 638 56 bng 19 250 50 0 empty empty empty 0 -10 0 12 #fcfcfc #000000 #000000;
#X obj 606 56 bng 19 250 50 0 empty empty empty 0 -10 0 12 #fcfcfc #000000 #000000;
#X floatatom 167 161 5 0 0 1 - - - 0;
#X obj 167 184 - 1;
#X text 184 287 randomize 8ve;
#X text 212 158 chord #;
#X obj 39 545 *~;
#X obj 312 130 spigot;
#X obj 700 49 tgl 19 0 empty empty rand\ chord 0 -6 0 9 #fcfcfc #000000 #000000 0 1;
#X obj 388 200 bng 19 250 50 0 empty empty empty 0 -10 0 12 #fcfcfc #000000 #000000;
#X obj 140 273 spigot;
#X obj 699 79 tgl 19 0 empty empty rand\ 8ve 0 -6 0 9 #ff0400 #000000 #000000 0 1;
#X text 630 -28 scale;
#X obj 122 36 metro 50;
#X floatatom 164 116 5 0 0 0 - - - 0;
#X obj 38 415 mtof, f 11;
#X obj 39 494 lop~ 5000;
#X obj 39 518 *~ 0.25;
#X floatatom 38 438 5 0 0 0 - - - 0;
#X floatatom 32 167 5 0 0 0 - - - 0;
#X obj 32 187 -1;
#X obj 32 229 +;
#X floatatom 38 368 5 0 0 0 - - - 0;
#X obj 28 -13 + 1;
#X obj 305 73 spigot;
#X obj 366 16 + 200;
#N canvas 0 50 450 250 (subpatch) 0;
#X coords 0 1 100 -1 159 62 1 0 0;
#X restore 600 38 graph;
#X obj 435 -46 r metro;
#X obj 414 -15 r randmetro;
#X obj 765 -50 r randscale;
#X obj 861 -50 r scale1;
#X obj 313 452 f;
#X obj 313 500 bng 19 250 50 0 empty empty empty 0 -10 0 12 #fcfcfc #000000 #000000;
#X msg 313 524 0;
#X obj 313 476 == 0;
#X obj 769 10 r randmotive;
#X obj 770 37 r randchord;
#X obj 770 61 r rand8ve;
#X obj 881 12 r motive1;
#X obj 881 36 r motive2;
#X obj 881 60 r motive3;
#X text 344 496 on/off with metro;
#X obj 38 391 + 60;
#N canvas 76 76 594 570 rand8ve 0;
#X obj 12 6 inlet;
#X floatatom 428 102 5 0 0 0 - - - 0;
#X msg 428 160 1;
#X msg 460 160 1;
#X msg 494 160 1;
#X obj 428 184 bng 19 250 50 0 empty empty empty 0 -10 0 12 #fcfcfc #000000 #000000;
#X obj 460 184 bng 19 250 50 0 empty empty empty 0 -10 0 12 #fcfcfc #000000 #000000;
#X obj 494 183 bng 19 250 50 0 empty empty empty 0 -10 0 12 #fcfcfc #000000 #000000;
#X obj 428 126 sel 0 1 2;
#X obj 293 34 r rand8ve;
#X obj 346 62 tgl 19 0 empty empty empty 0 -10 0 12 #fcfcfc #000000 #000000 0 1;
#X obj 295 86 f;
#X obj 295 110 == 0;
#X msg 295 134 1;
#X obj 295 158 tgl 19 0 empty empty empty 0 -10 0 12 #fcfcfc #000000 #000000 0 1;
#X obj 428 25 spigot;
#X obj 429 453 outlet;
#X floatatom 351 278 5 0 0 0 - - - 0;
#X obj 346 86 f;
#X obj 346 110 != 0;
#X msg 346 134 0;
#X floatatom 493 42 5 0 0 0 - - - 0;
#X msg 500 10 seed 123;
#X obj 428 78 random 3;
#X floatatom 429 258 5 0 0 0 - - - 0;
#X msg 428 208 0;
#X msg 460 208 12;
#X msg 494 207 -12;
#X obj 429 323 +;
#X floatatom 429 365 5 0 0 0 - - - 0;
#X obj 429 281 t b f;
#X obj 428 49 bng 19 250 50 0 empty empty empty 0 -10 0 12 #fcfcfc #000000 #000000;
#X connect 0 0 15 0;
#X connect 0 0 17 0;
#X connect 1 0 8 0;
#X connect 2 0 5 0;
#X connect 3 0 6 0;
#X connect 4 0 7 0;
#X connect 5 0 25 0;
#X connect 6 0 26 0;
#X connect 7 0 27 0;
#X connect 8 0 2 0;
#X connect 8 1 3 0;
#X connect 8 2 4 0;
#X connect 9 0 10 0;
#X connect 10 0 11 0;
#X connect 10 0 15 1;
#X connect 10 0 18 0;
#X connect 11 0 12 0;
#X connect 12 0 13 0;
#X connect 13 0 14 0;
#X connect 14 0 5 0;
#X connect 15 0 31 0;
#X connect 17 0 28 0;
#X connect 18 0 19 0;
#X connect 19 0 20 0;
#X connect 20 0 14 0;
#X connect 21 0 23 1;
#X connect 22 0 23 0;
#X connect 23 0 1 0;
#X connect 24 0 30 0;
#X connect 25 0 24 0;
#X connect 26 0 24 0;
#X connect 27 0 24 0;
#X connect 28 0 29 0;
#X connect 29 0 16 0;
#X connect 30 0 28 0;
#X connect 30 1 28 1;
#X connect 31 0 23 0;
#X restore 140 324 pd rand8ve;
#X obj 770 85 s rand8ve;
#X obj 39 645 throw~ dac1;
#X floatatom 156 360 5 0 0 0 - - - 0;
#X obj 809 -23 r scale2;
#X connect 0 0 10 0;
#X connect 0 0 14 0;
#X connect 0 0 1 0;
#X connect 1 0 2 0;
#X connect 2 0 62 0;
#X connect 3 0 64 0;
#X connect 4 0 5 0;
#X connect 5 0 86 0;
#X connect 6 0 59 0;
#X connect 7 0 56 0;
#X connect 7 0 74 0;
#X connect 8 0 66 0;
#X connect 11 0 57 0;
#X connect 12 0 57 0;
#X connect 13 0 12 0;
#X connect 14 0 52 0;
#X connect 14 0 67 0;
#X connect 15 0 45 0;
#X connect 16 0 17 0;
#X connect 17 0 26 0;
#X connect 17 1 27 0;
#X connect 18 0 19 0;
#X connect 19 0 29 0;
#X connect 19 1 30 0;
#X connect 19 2 31 0;
#X connect 20 0 22 0;
#X connect 21 0 68 0;
#X connect 22 0 23 0;
#X connect 22 1 21 0;
#X connect 23 0 57 0;
#X connect 24 0 67 1;
#X connect 32 0 16 0;
#X connect 33 0 32 1;
#X connect 34 0 18 0;
#X connect 35 0 34 1;
#X connect 40 0 27 0;
#X connect 41 0 26 0;
#X connect 42 0 31 0;
#X connect 43 0 30 0;
#X connect 44 0 29 0;
#X connect 45 0 46 0;
#X connect 46 0 64 1;
#X connect 49 0 88 0;
#X connect 50 0 15 0;
#X connect 51 0 50 1;
#X connect 52 0 32 0;
#X connect 52 0 34 0;
#X connect 52 0 50 0;
#X connect 52 0 53 0;
#X connect 53 0 86 0;
#X connect 54 0 53 1;
#X connect 54 0 87 0;
#X connect 56 0 9 0;
#X connect 56 0 8 0;
#X connect 57 0 56 1;
#X connect 58 0 61 0;
#X connect 59 0 60 0;
#X connect 60 0 49 0;
#X connect 60 0 49 1;
#X connect 61 0 6 0;
#X connect 62 0 63 0;
#X connect 63 0 3 0;
#X connect 64 0 4 0;
#X connect 65 0 85 0;
#X connect 66 0 8 1;
#X connect 66 0 0 0;
#X connect 67 0 20 0;
#X connect 68 0 57 0;
#X connect 70 0 7 0;
#X connect 71 0 24 0;
#X connect 72 0 33 0;
#X connect 73 0 41 0;
#X connect 74 0 77 0;
#X connect 75 0 76 0;
#X connect 76 0 61 0;
#X connect 77 0 75 0;
#X connect 78 0 35 0;
#X connect 79 0 51 0;
#X connect 80 0 54 0;
#X connect 81 0 44 0;
#X connect 82 0 43 0;
#X connect 83 0 42 0;
#X connect 85 0 58 0;
#X connect 85 0 89 0;
#X connect 86 0 65 0;
#X connect 90 0 40 0;
#X coords 0 -1 325 150 259 150 1 500 -50;
#X restore 8 5 pd Simple Arpeggiator;
#X text 332 93 in progress (will probably replace sequence synth);
