#N canvas 902 204 566 242 12;
#X obj 36 609 output2~ pd;
#N canvas 736 64 1920 944 Simple 1;
#X obj 28 34 % 4;
#X floatatom 32 122 5 0 0 0 - - - 0;
#X obj 32 145 tabread motive;
#X floatatom 32 209 5 0 0 0 - - - 0;
#X obj 32 252 tabread scale;
#X floatatom 32 276 5 0 0 0 - - - 0;
#X obj 29 408 phasor~, f 8;
#X obj 28 515 *~;
#X obj 505 23 tgl 19 0 empty empty on/off -2 -10 0 12 #fcfcfc #000000 #000000 0 1;
#X obj 67 -13 f;
#X obj 122 67 bng 19 250 50 0 empty empty empty 0 -10 0 12 #fcfcfc #000000 #000000;
#X floatatom 59 72 5 0 0 0 - - - 0;
#X obj 116 333 + 0;
#X obj 27 632 s~ output1;
#X obj 109 632 s~ output2;
#X obj 505 57 hsl 90 25 0 127 0 0 empty empty empty -2 -10 0 12 #fcfcfc #000000 #000000 0 1;
#X msg 205 -20 50;
#X obj 205 -54 loadbang;
#X obj 365 55 sel 0;
#X obj 276 164 random 8;
#X obj 408 268 random 2;
#X obj 408 292 sel 0 1;
#X obj 498 398 random 3;
#X obj 498 422 sel 0 1 2;
#X obj 286 -39 random 5;
#X obj 366 -8 * 250;
#X obj 286 -12 sel 0;
#X msg 286 12 100;
#X obj 552 23 tgl 19 0 empty empty random 0 -10 0 12 #c7c6ff #000000 #000000 0 1;
#N canvas 76 76 450 250 (subpatch) 0;
#X array scale 20 float 3;
#A 0 0 0 2 3 5 7 8 10 12 14 15 17 19 20 22 24 0 0 0 0;
#X coords 0 25 20 -1 200 140 1 0 0;
#X restore 478 121 graph;
#X msg 478 266 \; scale 1 0 2 4 5 7 9 11 12 14 16 17 19 21 23 24;
#X msg 478 308 \; scale 1 0 2 3 5 7 8 10 12 14 15 17 19 20 22 24;
#N canvas 190 190 450 250 (subpatch) 0;
#X array motive 12 float 3;
#A 0 0 8 5 3 1 0 0 0 0 0 0 0;
#X coords 0 20 12 -1 200 140 1 0 0;
#X restore 577 372 graph;
#X msg 576 517 \; motive const 0 \; motive 1 1 3 5 3;
#X msg 576 571 \; motive const 0 \; motive 1 8 5 3 1;
#X msg 716 517 \; motive const 0 \; motive 1 1 2 5 6 9;
#X obj 363 238 spigot;
#X obj 606 14 tgl 19 0 empty empty random 20 10 0 12 #c7c6ff #000000 #000000 0 1;
#X obj 498 367 spigot;
#X obj 606 78 tgl 19 0 empty empty random 20 10 0 12 #c7c6ff #000000 #000000 0 1;
#N canvas 38 38 450 250 (subpatch) 0;
#X coords 0 1 99 -1 100 125 1 0 0;
#X restore 500 -25 graph;
#N canvas 0 50 450 250 (subpatch) 0;
#X coords 0 1 100 -1 100 62 1 0 0;
#X restore 600 -25 graph;
#N canvas 0 50 450 250 (subpatch) 0;
#X coords 0 1 100 -1 125 150 1 0 0;
#X restore 700 -50 graph;
#X text 528 -27 metro;
#X text 625 35 motive;
#X obj 637 -9 bng 19 250 50 0 empty empty empty 0 -10 0 12 #fcfcfc #000000 #000000;
#X obj 606 -9 bng 19 250 50 0 empty empty empty 0 -10 0 12 #fcfcfc #000000 #000000;
#X obj 671 56 bng 19 250 50 0 empty empty empty 0 -10 0 12 #fcfcfc #000000 #000000;
#X obj 638 56 bng 19 250 50 0 empty empty empty 0 -10 0 12 #fcfcfc #000000 #000000;
#X obj 606 56 bng 19 250 50 0 empty empty empty 0 -10 0 12 #fcfcfc #000000 #000000;
#X floatatom 167 161 5 0 0 1 - - - 0;
#X obj 167 184 - 1;
#X floatatom 266 343 5 0 0 0 - - - 0;
#X text 285 367 randomize 8ve;
#X obj 250 306 random 4;
#N canvas 1133 159 450 300 env 0;
#X obj 45 12 inlet;
#X obj 124 55 t b b;
#X obj 226 12 inlet;
#X floatatom 226 61 5 0 0 0 - - - 0;
#X text 263 63 attack time;
#X obj 354 11 inlet;
#X floatatom 354 97 5 0 0 0 - - - 0;
#X obj 45 36 bng 19 250 50 0 empty empty empty 0 -10 0 12 #fcfcfc #000000 #000000;
#X text 392 97 release;
#X obj 124 79 del;
#X msg 195 124 0;
#X msg 123 108 1;
#X obj 123 148 pack f f;
#X obj 123 172 line;
#X obj 195 174 pack f f;
#X obj 195 198 line~;
#X obj 194 240 outlet~;
#X obj 20 238 switch~;
#X obj 20 145 tgl 19 0 empty empty empty 0 -10 0 12 #fcfcfc #000000 #000000 0 1;
#X obj 20 117 r env-onoff;
#X obj 226 89 outlet;
#X obj 354 129 outlet;
#X connect 0 0 7 0;
#X connect 1 0 9 0;
#X connect 1 1 11 0;
#X connect 2 0 3 0;
#X connect 3 0 9 1;
#X connect 3 0 20 0;
#X connect 5 0 6 0;
#X connect 6 0 14 1;
#X connect 6 0 21 0;
#X connect 7 0 1 0;
#X connect 9 0 10 0;
#X connect 10 0 14 0;
#X connect 11 0 12 0;
#X connect 12 0 13 0;
#X connect 12 0 15 0;
#X connect 14 0 15 0;
#X connect 14 0 13 0;
#X connect 15 0 16 0;
#X connect 18 0 17 0;
#X connect 19 0 18 0;
#X restore 330 523 pd env;
#X msg 395 436 25;
#X floatatom 370 484 5 0 0 0 - - - 0;
#X floatatom 430 511 5 0 0 0 - - - 0;
#X text 212 158 chord #;
#X obj 131 300 t f b;
#X floatatom 153 265 5 0 0 2 key - - 0;
#N canvas 357 364 1135 728 echo 0;
#X obj 36 20 inlet~;
#X obj 36 161 +~;
#X obj 78 120 *~;
#X obj 35 248 outlet~;
#X floatatom 125 56 5 0 0 0 - - - 0;
#X floatatom 264 112 5 0 0 0 - - - 0;
#X obj 264 159 pow 0.5;
#X obj 264 183 clip 0 0.99;
#X obj 264 207 \$1 50;
#X obj 264 231 line~;
#X obj 47 217 delwrite~ echo\$1 3000;
#X floatatom 343 157 5 0 0 0 - - - 0;
#X obj 417 169 switch~;
#X obj 417 76 tgl 19 0 empty empty empty 0 -10 0 12 #fcfcfc #000000 #000000 0 1;
#X obj 417 48 r echo-onoff;
#X obj 109 380 bang~;
#X obj 109 406 t b b;
#X obj 109 432 timer;
#X floatatom 109 461 8 0 0 0 - - - 0;
#X obj 109 489 bng 17 50 10 0 empty empty empty 0 -6 0 8 #dfdfdf #000000 #000000;
#X obj 264 135 * 0.01;
#X obj 108 87 delread~ echo\$1 3000;
#X connect 0 0 1 0;
#X connect 0 0 1 1;
#X connect 1 0 3 0;
#X connect 1 0 10 0;
#X connect 2 0 1 1;
#X connect 2 0 1 0;
#X connect 4 0 21 0;
#X connect 5 0 20 0;
#X connect 6 0 7 0;
#X connect 6 0 11 0;
#X connect 7 0 8 0;
#X connect 8 0 9 0;
#X connect 9 0 2 1;
#X connect 13 0 12 0;
#X connect 14 0 13 0;
#X connect 15 0 16 0;
#X connect 16 0 17 0;
#X connect 16 1 17 1;
#X connect 17 0 18 0;
#X connect 18 0 19 0;
#X connect 20 0 6 0;
#X connect 21 0 2 0;
#X restore 111 520 pd echo;
#X obj 29 483 *~;
#X obj 322 200 spigot;
#X obj 708 -29 tgl 19 0 empty empty rand\ chord 0 -6 0 9 #fcfcfc #000000 #000000 0 1;
#X obj 388 200 bng 19 250 50 0 empty empty empty 0 -10 0 12 #fcfcfc #000000 #000000;
#X obj 314 477 spigot;
#X obj 232 263 spigot;
#X obj 708 4 tgl 19 0 empty empty rand\ 8ve 0 -6 0 9 #ff0400 #000000 #000000 0 1;
#X obj 766 -29 tgl 19 0 empty empty rev\ on/off 0 -6 0 9 #fcfcfc #000000 #000000 0 1;
#X obj 766 4 tgl 19 0 empty empty env\ on/off 0 -6 0 9 #ff0400 #000000 #000000 0 1;
#X obj 840 17 s env-onoff;
#X obj 716 40 hsl 90 25 0 127 0 0 empty empty attack 25 12 0 12 #c6feff #000000 #0e4345 0 1;
#X obj 716 70 hsl 90 25 0 127 0 0 empty empty release 22 12 0 12 #e3c6ff #000000 #2f004d 0 1;
#X text 630 -28 scale;
#X text 717 24 env controls:;
#X obj 122 36 metro 50;
#X floatatom 164 116 5 0 0 0 - - - 0;
#X obj 29 369 mtof;
#X obj 29 432 lop~ 5000;
#X obj 29 456 *~ 0.25;
#X floatatom 70 387 5 0 0 0 - - - 0;
#X floatatom 32 167 5 0 0 0 - - - 0;
#X obj 32 187 -1;
#X obj 32 229 +;
#X obj 38 317 + 60;
#X floatatom 38 341 5 0 0 0 - - - 0;
#X obj 28 -13 + 1;
#X obj 305 73 spigot;
#X floatatom 222 423 5 0 0 0 - - - 0;
#X floatatom 222 391 5 0 0 0 - - - 0;
#X obj 222 367 random 3;
#X obj 832 -14 s rev-onoff;
#X obj 366 16 + 200;
#X obj 159 569 rev3~ 98 90 3000 50;
#X connect 0 0 11 0;
#X connect 0 0 18 0;
#X connect 0 0 1 0;
#X connect 1 0 2 0;
#X connect 2 0 83 0;
#X connect 3 0 85 0;
#X connect 4 0 5 0;
#X connect 5 0 86 0;
#X connect 6 0 80 0;
#X connect 7 0 13 0;
#X connect 7 0 14 0;
#X connect 7 0 95 0;
#X connect 7 0 95 1;
#X connect 8 0 77 0;
#X connect 9 0 88 0;
#X connect 12 0 86 0;
#X connect 15 0 78 0;
#X connect 16 0 78 0;
#X connect 17 0 16 0;
#X connect 18 0 66 0;
#X connect 18 0 89 0;
#X connect 19 0 50 0;
#X connect 20 0 21 0;
#X connect 21 0 30 0;
#X connect 21 1 31 0;
#X connect 22 0 23 0;
#X connect 23 0 33 0;
#X connect 23 1 34 0;
#X connect 23 2 35 0;
#X connect 24 0 26 0;
#X connect 25 0 94 0;
#X connect 26 0 27 0;
#X connect 26 1 25 0;
#X connect 27 0 78 0;
#X connect 28 0 89 1;
#X connect 36 0 20 0;
#X connect 37 0 36 1;
#X connect 38 0 22 0;
#X connect 39 0 38 1;
#X connect 45 0 31 0;
#X connect 46 0 30 0;
#X connect 47 0 35 0;
#X connect 48 0 34 0;
#X connect 49 0 33 0;
#X connect 50 0 51 0;
#X connect 51 0 85 1;
#X connect 54 0 52 0;
#X connect 55 0 63 1;
#X connect 55 1 73 0;
#X connect 55 2 74 0;
#X connect 56 0 57 0;
#X connect 56 0 58 0;
#X connect 57 0 55 1;
#X connect 58 0 55 2;
#X connect 60 0 12 0;
#X connect 63 0 7 0;
#X connect 63 0 7 1;
#X connect 64 0 19 0;
#X connect 65 0 64 1;
#X connect 66 0 36 0;
#X connect 66 0 38 0;
#X connect 66 0 64 0;
#X connect 66 0 68 0;
#X connect 67 0 55 0;
#X connect 68 0 92 0;
#X connect 69 0 68 1;
#X connect 70 0 93 0;
#X connect 71 0 72 0;
#X connect 73 0 55 1;
#X connect 74 0 55 2;
#X connect 77 0 10 0;
#X connect 77 0 9 0;
#X connect 78 0 77 1;
#X connect 79 0 82 0;
#X connect 80 0 81 0;
#X connect 81 0 63 0;
#X connect 81 0 63 1;
#X connect 82 0 6 0;
#X connect 83 0 84 0;
#X connect 84 0 3 0;
#X connect 85 0 4 0;
#X connect 86 0 87 0;
#X connect 87 0 79 0;
#X connect 88 0 9 1;
#X connect 88 0 0 0;
#X connect 89 0 24 0;
#X connect 91 0 12 1;
#X connect 92 0 91 0;
#X connect 94 0 78 0;
#X connect 95 0 13 0;
#X connect 95 1 14 0;
#X coords 0 -1 325 150 325 150 1 500 -50;
#X restore 27 27 pd Simple Arpeggiator;
#N canvas 180 155 890 614 output 0;
#X obj 358 223 bng 25 250 50 0 \$0-mute-dummy-out \$0-bang mute -30 10 0 12 #ffc7c6 #000000 #000000;
#X obj 402 223 tgl 25 0 empty empty dsp 2 12 0 11 #ffffff #000000 #606060 0 1;
#X obj 406 72 sel 1 0;
#X msg 406 110 \; pd dsp 1;
#X msg 482 111 \; pd dsp 0;
#X obj 316 268 hsl 109 19 0 127 0 0 \$0-number-value \$0-lvl volume -2 -10 0 12 #dfdfdf #000000 #000000 0 1;
#X obj 42 274 line~;
#X obj 77 326 *~;
#X obj 77 356 dac~;
#X obj 157 325 *~;
#X obj 172 201 route bang level;
#X obj 209 253 clip 0 100;
#X obj 42 74 r \$0-master-lvl;
#X obj 209 287 s \$0-lvl;
#X obj 489 190 clip 0 100;
#X obj 489 157 r \$0-number-value;
#X msg 522 218 set \$1;
#X obj 464 399 float;
#X obj 506 324 s \$0-master-lvl;
#X text 574 378 <-- nonzero master-lvl;
#X obj 373 529 s \$0-bang;
#X msg 563 439 label mute \, label_pos -30 10;
#X obj 563 470 s \$0-bang;
#X obj 580 407 loadbang;
#X msg 373 500 label unmute \, label_pos -44 10;
#X obj 373 334 sel 1 0;
#X obj 489 356 moses 1e-30;
#X text 583 219 <-- keep values;
#X text 614 235 within range;
#X obj 522 244 s \$0-lvl;
#X obj 373 306 tgl 19 0 empty empty empty 0 -10 0 12 #fcfcfc #000000 #000000 0 1;
#X floatatom 286 331 5 0 0 0 - - - 0;
#X obj 373 358 f;
#X obj 373 382 != 0;
#X obj 185 159 r~ output2;
#X obj 75 159 r~ output1 fwd;
#X obj 409 359 f;
#X obj 409 383 == 0;
#X msg 409 413 1;
#X msg 373 413 1;
#X connect 0 0 30 0;
#X connect 1 0 2 0;
#X connect 2 0 3 0;
#X connect 2 1 4 0;
#X connect 5 0 31 0;
#X connect 6 0 9 0;
#X connect 6 0 7 0;
#X connect 7 0 8 0;
#X connect 9 0 8 1;
#X connect 10 0 0 0;
#X connect 10 0 35 0;
#X connect 10 1 11 0;
#X connect 11 0 13 0;
#X connect 12 0 6 0;
#X connect 14 0 16 0;
#X connect 14 0 18 0;
#X connect 14 0 26 0;
#X connect 15 0 14 0;
#X connect 16 0 29 0;
#X connect 21 0 22 0;
#X connect 23 0 21 0;
#X connect 24 0 20 0;
#X connect 25 0 32 0;
#X connect 25 1 17 0;
#X connect 25 1 36 0;
#X connect 26 1 17 1;
#X connect 26 1 21 0;
#X connect 30 0 25 0;
#X connect 32 0 33 0;
#X connect 33 0 39 0;
#X connect 34 0 9 0;
#X connect 35 0 7 1;
#X connect 36 0 37 0;
#X connect 37 0 38 0;
#X connect 38 0 21 0;
#X connect 39 0 24 0;
#X coords 0 -1 120 100 120 100 1 310 200;
#X restore 386 27 pd output;
