#N canvas 398 57 972 765 12;
#X obj 371 236 bng 19 250 50 0 \$0-mute-dummy-out \$0-bang mute -30 10 0 12 #ffc7c6 #000000 #000000;
#X obj 371 215 tgl 19 0 empty empty dsp 0 10 0 11 #ffffff #000000 #606060 0 1;
#X obj 532 128 sel 1 0;
#X msg 532 166 \; pd dsp 1;
#X msg 608 167 \; pd dsp 0;
#X obj 327 215 hsl 40 19 0 127 0 0 \$0-number-value \$0-lvl volume 5 10 0 9 #bbbbbb #000000 #606060 0 1;
#X obj 8 274 line~;
#X obj 43 326 *~;
#X obj 43 358 dac~;
#X obj 127 325 *~;
#X obj 213 151 route bang level;
#X obj 227 186 clip 0 100;
#X obj 8 131 r \$0-master-lvl;
#X obj 227 220 s \$0-lvl;
#X obj 371 260 tgl 19 0 empty \$0-tgl empty 0 -10 0 12 #fcfcfc #000000 #000000 0 1;
#X floatatom 324 272 5 0 0 0 - - - 0;
#X text 529 104 dsp on/off;
#X obj 60 223 inlet~ fwd;
#X obj 144 224 inlet~;
#X text 15 377 to sound card;
#X text 272 273 volume;
#X obj 702 363 clip 0 100;
#X obj 663 337 r \$0-number-value;
#X msg 736 388 set \$1;
#X obj 461 459 float;
#X obj 736 437 s \$0-master-lvl;
#X obj 165 526 s \$0-bang;
#X msg 563 493 label mute \, label_pos -30 10;
#X obj 563 519 s \$0-bang;
#X obj 588 468 loadbang;
#X msg 165 497 label unmute \, label_pos -44 10;
#X obj 371 337 sel 1 0;
#X msg 492 493 set 0;
#X obj 537 384 moses 1e-30;
#X obj 371 459 sel 1 0;
#X obj 492 519 s \$0-tgl;
#X obj 391 520 s \$0-lvl;
#X obj 736 412 s \$0-lvl;
#X obj 371 361 f;
#X msg 391 492 0;
#X msg 371 385 1;
#X connect 0 0 14 0;
#X connect 1 0 2 0;
#X connect 2 0 3 0;
#X connect 2 1 4 0;
#X connect 5 0 15 0;
#X connect 5 0 7 1;
#X connect 5 0 9 1;
#X connect 6 0 9 0;
#X connect 6 0 7 0;
#X connect 7 0 8 0;
#X connect 9 0 8 1;
#X connect 10 0 0 0;
#X connect 10 1 11 0;
#X connect 11 0 13 0;
#X connect 12 0 6 0;
#X connect 14 0 31 0;
#X connect 17 0 7 1;
#X connect 17 1 10 0;
#X connect 18 0 9 1;
#X connect 21 0 23 0;
#X connect 21 0 25 0;
#X connect 21 0 33 0;
#X connect 22 0 21 0;
#X connect 23 0 37 0;
#X connect 24 0 36 0;
#X connect 27 0 28 0;
#X connect 29 0 27 0;
#X connect 30 0 26 0;
#X connect 31 0 38 0;
#X connect 31 1 24 0;
#X connect 32 0 35 0;
#X connect 33 0 30 0;
#X connect 33 1 24 1;
#X connect 33 1 27 0;
#X connect 33 1 32 0;
#X connect 34 0 39 0;
#X connect 34 0 30 0;
#X connect 34 1 32 0;
#X connect 38 0 40 0;
#X connect 39 0 36 0;
#X connect 40 0 34 0;
#X connect 40 0 30 0;
#X coords 0 0 1 1 81 55 1 310 200;
