#N canvas 127 200 847 646 12;
#X declare -lib Gem;
#N canvas 260 93 682 322 gemwin 0;
#X obj 102 122 tgl 15 0 \$0-gemstart \$0-gemstart empty 17 7 0 10 #fcfcfc #000000 #000000 0 1;
#X obj 102 161 r \$0-gemstart;
#X obj 102 182 select 1 0;
#X msg 102 214 create \, 1;
#X msg 177 215 destroy;
#X obj 102 239 t a;
#X obj 318 54 inlet;
#X obj 318 255 gemwin;
#X obj 318 100 t a a;
#X obj 318 287 outlet;
#X obj 350 128 route create destroy;
#X obj 350 150 t b;
#X msg 350 172 1;
#X obj 390 150 t b;
#X msg 390 172 0;
#X obj 350 195 t f;
#X msg 350 219 set \$1;
#X text 118 122 rendering;
#X msg 399 246 view 0 0 20 \, perspec -1 1 -1 1 4 50;
#X connect 1 0 2 0;
#X connect 2 0 3 0;
#X connect 2 1 4 0;
#X connect 3 0 5 0;
#X connect 4 0 5 0;
#X connect 5 0 8 0;
#X connect 6 0 8 0;
#X connect 7 0 9 0;
#X connect 8 0 7 0;
#X connect 8 1 10 0;
#X connect 10 0 11 0;
#X connect 10 1 13 0;
#X connect 11 0 12 0;
#X connect 12 0 15 0;
#X connect 13 0 14 0;
#X connect 14 0 15 0;
#X connect 15 0 16 0;
#X connect 16 0 0 0;
#X connect 18 0 7 0;
#X coords 0 -1 1 1 85 40 1 100 100;
#X restore 19 17 pd gemwin;
#X obj 676 16 declare -lib Gem;
#N canvas 104 458 864 769 gem-blob 0;
#X obj 124 23 gemhead;
#X obj 124 214 pix_diff;
#X obj 7 340 pix_texture;
#X obj 7 385 rectangle 4 3;
#X obj 124 159 pix_separator;
#X obj 223 159 pix_separator;
#X obj 124 100 pix_grey;
#X obj 124 52 pix_video;
#X obj 124 289 pix_blob;
#N canvas 1020 105 721 721 cursor 0;
#X obj 17 14 inlet;
#X obj 89 18 inlet;
#X obj 101 346 translateXYZ;
#X text 63 148 0.64;
#X text 37 151 1;
#X obj 23 63 t f f;
#X obj 37 176 -;
#X text 62 177 X-Range;
#X text 196 176 Y-Range;
#X obj 63 240 expr (8/$f1);
#X obj 33 241 -;
#X obj 51 267 *;
#X obj 29 95 max 0;
#X obj 71 95 min 10;
#X obj 59 132 f;
#X obj 33 131 f;
#X obj 52 293 - 4;
#X text 193 146 0.64;
#X text 167 149 1;
#X obj 153 61 t f f;
#X obj 167 174 -;
#X obj 193 238 expr (8/$f1);
#X obj 163 239 -;
#X obj 181 265 *;
#X obj 159 93 max 0;
#X obj 201 93 min 10;
#X obj 189 130 f;
#X obj 163 129 f;
#X text 188 171 comment;
#X obj 154 298 expr (-1*$f1)+4;
#X obj 293 27 inlet;
#X obj 94 320 gemhead 15;
#X obj 157 509 circle 0.1;
#X obj 17 423 separator;
#X obj 87 423 separator;
#X obj 17 484 rectangle 0.2 0.01;
#X obj 157 423 separator;
#X msg 185 478 draw line;
#X obj 185 457 loadbang;
#X obj 77 386 colorRGB 1 0 0 1;
#X obj 17 462 rectangle 0.01 0.2;
#X msg 256 478 width \$1;
#X obj 296 342 int;
#X obj 275 413 + 1;
#X obj 283 63 * 100;
#X connect 0 0 5 0;
#X connect 1 0 19 0;
#X connect 2 0 39 0;
#X connect 5 0 10 0;
#X connect 5 0 12 0;
#X connect 5 1 13 0;
#X connect 6 0 9 0;
#X connect 9 0 11 1;
#X connect 10 0 11 0;
#X connect 11 0 16 0;
#X connect 12 0 15 0;
#X connect 13 0 14 0;
#X connect 14 0 6 1;
#X connect 14 0 10 1;
#X connect 14 0 13 1;
#X connect 15 0 6 0;
#X connect 15 0 12 1;
#X connect 16 0 2 1;
#X connect 19 0 22 0;
#X connect 19 0 24 0;
#X connect 19 1 25 0;
#X connect 20 0 21 0;
#X connect 21 0 23 1;
#X connect 22 0 23 0;
#X connect 23 0 29 0;
#X connect 24 0 27 0;
#X connect 25 0 26 0;
#X connect 26 0 20 1;
#X connect 26 0 22 1;
#X connect 26 0 25 1;
#X connect 27 0 20 0;
#X connect 27 0 24 1;
#X connect 29 0 2 2;
#X connect 30 0 44 0;
#X connect 31 0 2 0;
#X connect 33 0 40 0;
#X connect 34 0 35 0;
#X connect 36 0 32 0;
#X connect 37 0 32 0;
#X connect 38 0 37 0;
#X connect 39 0 33 0;
#X connect 39 0 34 0;
#X connect 39 0 36 0;
#X connect 41 0 32 0;
#X connect 42 0 43 0;
#X connect 43 0 41 0;
#X connect 44 0 32 1;
#X connect 44 0 42 0;
#X restore 138 331 pd cursor;
#X obj 7 363 translateXYZ 0 0 -0.1;
#X obj 124 259 pix_threshold;
#X obj 164 237 hsl 128 15 0 1 0 1 empty empty threshold 8 8 0 10 #fcfcc4 #000000 #000000 3200 0;
#X obj 213 191 pix_delay 1;
#X obj 124 126 trigger anything anything;
#X obj 18 10 loadbang;
#X msg 18 31 device 0;
#X obj 124 73 pix_zoom;
#X floatatom 222 412 5 0 0 0 - - - 0;
#X floatatom 163 412 5 0 0 0 - - - 0;
#X text 220 391 blob y;
#X text 159 391 blob x;
#X obj 163 432 s blx;
#X obj 222 432 s bly;
#X connect 0 0 7 0;
#X connect 1 0 11 0;
#X connect 2 0 10 0;
#X connect 4 0 1 0;
#X connect 5 0 13 0;
#X connect 6 0 14 0;
#X connect 7 0 17 0;
#X connect 8 1 9 0;
#X connect 8 1 19 0;
#X connect 8 2 9 1;
#X connect 8 2 18 0;
#X connect 8 3 9 2;
#X connect 10 0 3 0;
#X connect 11 0 8 0;
#X connect 11 0 2 0;
#X connect 12 0 11 1;
#X connect 13 0 1 1;
#X connect 14 0 5 0;
#X connect 14 1 4 0;
#X connect 15 0 16 0;
#X connect 16 0 7 0;
#X connect 17 0 6 0;
#X connect 18 0 23 0;
#X connect 19 0 22 0;
#X restore 117 19 pd gem-blob;
#N canvas 929 174 862 642 note-select 0;
#X obj 334 133 * 12;
#X floatatom 334 154 5 0 0 0 - - - 0;
#X obj 689 223 <= 12;
#X obj 334 223 <= 1;
#X obj 366 223 <= 2;
#X obj 397 223 <= 3;
#X obj 429 223 <= 4;
#X obj 461 223 <= 5;
#X obj 491 223 <= 6;
#X obj 522 223 <= 7;
#X obj 553 223 <= 8;
#X obj 584 223 <= 9;
#X obj 615 223 <= 10;
#X obj 652 223 <= 11;
#X obj 334 244 bng 16 250 50 0 empty empty empty 0 -8 0 10 #fcfcfc #000000 #000000;
#X obj 366 244 bng 16 250 50 0 empty empty empty 0 -8 0 10 #fcfcfc #000000 #000000;
#X obj 397 244 bng 16 250 50 0 empty empty empty 0 -8 0 10 #fcfcfc #000000 #000000;
#X obj 429 244 bng 16 250 50 0 empty empty empty 0 -8 0 10 #fcfcfc #000000 #000000;
#X obj 461 244 bng 16 250 50 0 empty empty empty 0 -8 0 10 #fcfcfc #000000 #000000;
#X obj 491 244 bng 16 250 50 0 empty empty empty 0 -8 0 10 #fcfcfc #000000 #000000;
#X obj 522 244 bng 16 250 50 0 empty empty empty 0 -8 0 10 #fcfcfc #000000 #000000;
#X obj 553 244 bng 16 250 50 0 empty empty empty 0 -8 0 10 #fcfcfc #000000 #000000;
#X obj 584 244 bng 16 250 50 0 empty empty empty 0 -8 0 10 #fcfcfc #000000 #000000;
#X obj 615 244 bng 16 250 50 0 empty empty empty 0 -8 0 10 #fcfcfc #000000 #000000;
#X obj 652 244 bng 16 250 50 0 empty empty empty 0 -8 0 10 #fcfcfc #000000 #000000;
#X obj 689 244 bng 16 250 50 0 empty empty empty 0 -8 0 10 #fcfcfc #000000 #000000;
#X msg 334 265 60;
#X msg 366 265 61;
#X msg 397 265 62;
#X msg 429 265 63;
#X msg 461 265 64;
#X msg 491 265 65;
#X msg 522 265 66;
#X msg 553 265 67;
#X msg 584 265 68;
#X msg 615 265 69;
#X msg 652 264 70;
#X msg 689 264 71;
#X floatatom 334 361 5 0 0 0 - - - 0;
#X obj 334 330 spigot;
#X obj 334 401 +;
#X floatatom 334 422 5 0 0 0 - - - 0;
#X floatatom 367 382 5 0 0 0 - - - 0;
#X text 130 246 4;
#X text 130 214 3;
#X text 130 182 2;
#X text 130 150 1;
#X text 130 278 5;
#X text 130 310 6;
#X text 130 343 7;
#X obj 103 150 bng 19 250 50 0 empty empty empty 0 -10 0 12 #fcfcfc #000000 #000000;
#X obj 103 182 bng 19 250 50 0 empty empty empty 0 -10 0 12 #fcfcfc #000000 #000000;
#X obj 103 214 bng 19 250 50 0 empty empty empty 0 -10 0 12 #fcfcfc #000000 #000000;
#X obj 103 246 bng 19 250 50 0 empty empty empty 0 -10 0 12 #fcfcfc #000000 #000000;
#X obj 103 278 bng 19 250 50 0 empty empty empty 0 -10 0 12 #fcfcfc #000000 #000000;
#X obj 103 310 bng 19 250 50 0 empty empty empty 0 -10 0 12 #fcfcfc #000000 #000000;
#X obj 103 343 bng 19 250 50 0 empty empty empty 0 -10 0 12 #fcfcfc #000000 #000000;
#X msg 237 259 12;
#X msg 237 291 24;
#X msg 237 324 36;
#X msg 237 227 0;
#X msg 237 195 -12;
#X msg 237 163 -24;
#X msg 237 131 -36;
#X text 100 126 Octave Select;
#X connect 0 0 1 0;
#X connect 1 0 2 0;
#X connect 1 0 3 0;
#X connect 1 0 4 0;
#X connect 1 0 5 0;
#X connect 1 0 6 0;
#X connect 1 0 7 0;
#X connect 1 0 8 0;
#X connect 1 0 9 0;
#X connect 1 0 10 0;
#X connect 1 0 11 0;
#X connect 1 0 12 0;
#X connect 1 0 13 0;
#X connect 2 0 25 0;
#X connect 3 0 14 0;
#X connect 4 0 15 0;
#X connect 5 0 16 0;
#X connect 6 0 17 0;
#X connect 7 0 18 0;
#X connect 8 0 19 0;
#X connect 9 0 20 0;
#X connect 10 0 21 0;
#X connect 11 0 22 0;
#X connect 12 0 23 0;
#X connect 13 0 24 0;
#X connect 14 0 26 0;
#X connect 14 0 39 1;
#X connect 15 0 27 0;
#X connect 15 0 39 1;
#X connect 16 0 28 0;
#X connect 16 0 39 1;
#X connect 17 0 29 0;
#X connect 17 0 39 1;
#X connect 18 0 30 0;
#X connect 18 0 39 1;
#X connect 19 0 31 0;
#X connect 19 0 39 1;
#X connect 20 0 32 0;
#X connect 20 0 39 1;
#X connect 21 0 33 0;
#X connect 21 0 39 1;
#X connect 22 0 34 0;
#X connect 22 0 39 1;
#X connect 23 0 35 0;
#X connect 23 0 39 1;
#X connect 24 0 36 0;
#X connect 24 0 39 1;
#X connect 25 0 37 0;
#X connect 25 0 39 1;
#X connect 26 0 39 0;
#X connect 27 0 39 0;
#X connect 28 0 39 0;
#X connect 29 0 39 0;
#X connect 30 0 39 0;
#X connect 31 0 39 0;
#X connect 32 0 39 0;
#X connect 33 0 39 0;
#X connect 34 0 39 0;
#X connect 35 0 39 0;
#X connect 36 0 39 0;
#X connect 37 0 39 0;
#X connect 38 0 40 0;
#X connect 39 0 38 0;
#X connect 40 0 41 0;
#X connect 42 0 40 1;
#X connect 50 0 63 0;
#X connect 51 0 62 0;
#X connect 52 0 61 0;
#X connect 53 0 60 0;
#X connect 54 0 57 0;
#X connect 55 0 58 0;
#X connect 56 0 59 0;
#X connect 57 0 42 0;
#X connect 58 0 42 0;
#X connect 59 0 42 0;
#X connect 60 0 42 0;
#X connect 61 0 42 0;
#X connect 62 0 42 0;
#X connect 63 0 42 0;
#X coords 0 -1 1 1 100 275 1 100 100;
#X restore 19 70 pd note-select;
#N canvas 85 594 450 300 instrument_select 0;
#X obj 22 94 makenote;
#X obj 22 18 r notes;
#X obj 22 118 mtof;
#N canvas 804 140 914 681 piano 0;
#X obj 364 216 r~ freq;
#X floatatom 364 240 5 0 0 0 - - - 0;
#N canvas 0 50 450 250 (subpatch) 0;
#X array array1 300033 float 2;
#X coords 0 1 300033 -1 200 140 1 0 0;
#X restore 27 25 graph;
#X obj 281 11 inlet;
#X obj 281 35 bng 19 250 50 0 empty empty empty 0 -10 0 12 #fcfcfc #000000 #000000;
#X obj 281 126 soundfiler;
#X msg 281 84 read -resize \$1 array1, f 24;
#X floatatom 281 157 14 0 0 0 - - - 0;
#X msg 281 59 open C:/Users/arobe/PD/MPS_Final/Samples/piano_C_major.wav;
#X obj 281 180 expr 4410/$f1;
#X obj 281 273 phasor~;
#X obj 281 297 *~;
#X obj 281 321 tabread4~ array1;
#X msg 254 246 0;
#X obj 447 241 f;
#X msg 513 468 0 \, \$1 \$2;
#X obj 512 518 tabread4~ array1;
#X obj 504 554 dac~;
#X obj 552 408 / 44.1;
#X obj 516 330 t f f;
#X obj 519 441 pack f f;
#X obj 482 250 bng 19 250 50 0 empty empty empty 0 -10 0 12 #fcfcfc #000000 #000000;
#X obj 513 494 line~;
#X floatatom 574 279 5 0 0 0 - - - 0;
#X floatatom 574 355 5 0 0 0 - - - 0;
#X obj 550 381 *;
#X obj 574 331 expr pow(2 \, -$f1/12);
#X floatatom 485 136 5 0 0 0 - - - 0;
#X obj 485 159 t b f;
#X obj 547 210 - 12;
#X obj 605 121 hsl 162 19 -12 24 0 0 empty empty empty -2 -10 0 12 #fcfcfc #000000 #000000 0 1;
#X obj 602 145 int;
#X obj 603 169 change;
#X connect 0 0 1 0;
#X connect 1 0 10 0;
#X connect 3 0 4 0;
#X connect 4 0 8 0;
#X connect 5 0 7 0;
#X connect 6 0 5 0;
#X connect 7 0 9 0;
#X connect 7 0 11 1;
#X connect 7 0 14 1;
#X connect 8 0 6 0;
#X connect 9 0 10 0;
#X connect 10 0 11 0;
#X connect 11 0 12 0;
#X connect 13 0 10 0;
#X connect 14 0 19 0;
#X connect 15 0 22 0;
#X connect 16 0 17 0;
#X connect 16 0 17 1;
#X connect 18 0 20 1;
#X connect 19 0 20 0;
#X connect 19 1 25 0;
#X connect 20 0 15 0;
#X connect 21 0 14 0;
#X connect 22 0 16 0;
#X connect 23 0 26 0;
#X connect 24 0 25 1;
#X connect 25 0 18 0;
#X connect 26 0 24 0;
#X connect 27 0 28 0;
#X connect 28 0 14 0;
#X connect 28 1 29 0;
#X connect 29 0 23 0;
#X connect 30 0 31 0;
#X connect 31 0 32 0;
#X connect 32 0 27 0;
#X restore 139 95 pd piano;
#X connect 0 0 2 0;
#X connect 1 0 0 0;
#X restore 138 70 pd instrument_select;
#N canvas 951 0 956 931 TDReceive 0;
#X obj 11 76 oscparse;
#X obj 11 103 list trim;
#X floatatom 71 272 5 0 0 0 - - - 0;
#X floatatom 53 229 5 0 0 0 - - - 0;
#X floatatom 95 229 5 0 0 0 - - - 0;
#X floatatom 136 229 5 0 0 0 - - - 0;
#X obj 260 7 key;
#X floatatom 260 31 5 0 0 0 - - - 0;
#X obj 260 54 sel 49 50 51 52 53 54;
#X msg 261 201 1;
#X msg 292 90 2;
#X obj 12 300 pack f f f f f;
#X msg 12 324 \$5 \$1 \$2 \$3 \$4;
#X obj 12 348 route 1 2;
#X listbox 12 372 37 0 0 0 - - - 0;
#X listbox 41 399 20 0 0 0 - - - 0;
#X obj 12 205 route d.left d.right;
#X obj 59 355;
#X obj 436 298 print;
#X floatatom 81 174 5 0 0 0 - - - 0;
#X listbox 485 190 189 0 0 0 - - - 0;
#X obj 604 487 list tosymbol;
#X listbox 604 542 69 0 0 0 - - - 0;
#X listbox 559 153 30 0 0 0 - - - 0;
#X obj 381 113 iemnet/udpreceive 7000;
#X obj 604 579 route;
#X obj 485 213 route f f f f f f f f f f f f f f f f f f f f f f f f f f;
#X listbox 489 301 20 0 0 0 - - - 0;
#X listbox 604 438 20 0 0 0 - - - 0;
#X obj 493 152 bng 19 250 50 0 empty empty empty 0 -10 0 12 #fcfcfc #000000 #000000;
#X connect 0 0 1 0;
#X connect 1 0 16 0;
#X connect 2 0 11 0;
#X connect 3 0 11 1;
#X connect 4 0 11 2;
#X connect 5 0 11 3;
#X connect 6 0 7 0;
#X connect 7 0 8 0;
#X connect 8 0 9 0;
#X connect 8 1 10 0;
#X connect 9 0 11 4;
#X connect 10 0 11 4;
#X connect 11 0 12 0;
#X connect 12 0 13 0;
#X connect 13 0 14 0;
#X connect 13 1 15 0;
#X connect 16 0 2 0;
#X connect 16 1 3 0;
#X connect 16 2 4 0;
#X connect 20 0 26 0;
#X connect 21 0 22 0;
#X connect 22 0 25 0;
#X connect 24 0 18 0;
#X connect 24 0 20 0;
#X connect 26 0 27 0;
#X connect 26 1 27 0;
#X connect 26 2 27 0;
#X connect 26 3 27 0;
#X connect 26 4 28 0;
#X connect 26 5 28 0;
#X connect 26 6 28 0;
#X connect 26 7 27 0;
#X connect 26 8 28 0;
#X connect 26 9 28 0;
#X connect 26 10 28 0;
#X connect 26 11 28 0;
#X connect 26 12 27 0;
#X connect 26 13 28 0;
#X connect 26 15 27 0;
#X connect 26 16 28 0;
#X connect 26 17 28 0;
#X connect 26 18 28 0;
#X connect 26 19 27 0;
#X connect 26 20 28 0;
#X connect 26 21 28 0;
#X connect 26 22 28 0;
#X connect 26 23 28 0;
#X connect 26 24 27 0;
#X connect 26 25 27 0;
#X connect 26 26 27 0;
#X connect 28 0 21 0;
#X connect 29 0 20 0;
#X connect 29 0 26 0;
#X restore 139 97 pd TDReceive;
